<?xml version="1.0" encoding="iso-8859-1"?>
<!-- Generator: Adobe Illustrator 19.1.0, SVG Export Plug-In . SVG Version: 6.00 Build 0)  -->
<svg version="1.1" id="Capa_1" xmlns="http://www.w3.org/2000/svg" xmlns:xlink="http://www.w3.org/1999/xlink" x="0px" y="0px"
	 viewBox="0 0 553.296 553.296" style="enable-background:new 0 0 553.296 553.296;" xml:space="preserve">
<g>
	<g>
		<path d="M377.247,145.869L377.247,145.869c0,0,0-5.03,0-12.575V7.545c0-7.545,0-7.545,0-7.545H226.348v125.749
			c0,7.545-5.03,12.575-12.575,12.575s-12.575-5.03-12.575-12.575V0h-25.15v125.749c0,7.545-5.03,12.575-12.575,12.575
			c-7.545,0-12.575-5.03-12.575-12.575V0h-12.575h-12.575v125.749c0,7.545-5.03,12.575-12.575,12.575s-12.575-5.03-12.575-12.575
			V2.515C50.3,7.545,0,37.725,0,88.024v334.492c0,65.389,75.449,130.779,138.324,130.779h334.492
			c55.33,0,80.479-47.785,80.479-130.779V145.869h-7.545L377.247,145.869z M208.743,226.348c20.12-27.665,50.3-42.755,82.994-42.755
			s62.874,15.09,82.994,42.755c12.575,17.605,20.12,37.725,20.12,57.845c0,55.33-45.27,100.599-100.599,100.599
			s-100.599-45.27-100.599-100.599C191.138,264.073,196.168,243.953,208.743,226.348z M472.816,528.146H138.324
			c-50.3,0-113.174-52.815-113.174-105.629V301.798h135.809c2.515,0,2.515,0,5.03,0c7.545,62.875,60.36,113.174,125.749,113.174
			s118.204-47.785,125.749-110.659h110.659v120.719C528.146,455.211,533.176,528.146,472.816,528.146z"/>
		<path d="M470.301,0h-67.904v7.545v115.689l150.899-2.515l0,0l0,0V88.024C553.296,22.635,535.691,0,470.301,0z"/>
		<path d="M291.738,347.067c32.695,0,60.359-27.665,60.359-60.36c0-12.575-5.03-25.15-12.575-35.21
			c-10.06-15.09-30.18-25.15-47.785-25.15c-20.12,0-37.725,10.06-47.785,25.15c-7.545,10.06-10.06,22.635-10.06,35.21
			C231.378,319.402,259.043,347.067,291.738,347.067z"/>
	</g>
</g>
<g>
</g>
<g>
</g>
<g>
</g>
<g>
</g>
<g>
</g>
<g>
</g>
<g>
</g>
<g>
</g>
<g>
</g>
<g>
</g>
<g>
</g>
<g>
</g>
<g>
</g>
<g>
</g>
<g>
</g>
</svg>
